<svg width="396" height="172" viewBox="0 0 396 172" fill="none" xmlns="http://www.w3.org/2000/svg">
<path d="M77.688 50.138L143.59 0.171997V126H117.86V51.466L77.688 80.516L37.516 51.466V126H11.786V0.171997L77.688 50.138ZM256.893 126L248.759 109.4H188.833L180.865 126H154.305L219.543 0.171997L284.947 126H256.893ZM218.547 47.648L199.955 86.16H237.471L218.547 47.648ZM337.468 2.32999H385.11V70.722C385.11 101.764 366.85 128.158 331.16 128.158C306.094 128.158 286.34 115.708 280.032 88.318L303.604 81.18C308.584 101.1 323.192 103.424 331.326 103.424C350.084 103.424 359.38 87.156 359.38 70.722V25.57H337.468V2.32999Z" fill="black"/>
<path opacity="0.7" d="M23.5158 156.48C23.5158 156.76 23.5758 157 23.6958 157.2C23.8291 157.4 24.0091 157.573 24.2358 157.72C24.4624 157.867 24.7291 158.007 25.0358 158.14C25.3558 158.26 25.7091 158.387 26.0958 158.52C26.5758 158.693 27.0491 158.893 27.5158 159.12C27.9958 159.333 28.4224 159.607 28.7958 159.94C29.1824 160.26 29.4958 160.66 29.7358 161.14C29.9758 161.62 30.0958 162.2 30.0958 162.88C30.0958 163.6 29.9624 164.207 29.6958 164.7C29.4424 165.193 29.0958 165.593 28.6558 165.9C28.2158 166.193 27.7091 166.407 27.1358 166.54C26.5624 166.673 25.9691 166.74 25.3558 166.74C24.4758 166.74 23.6491 166.633 22.8758 166.42C22.1158 166.207 21.4624 165.947 20.9158 165.64L21.5158 163.48C22.0224 163.867 22.5824 164.187 23.1958 164.44C23.8224 164.693 24.5358 164.82 25.3358 164.82C26.1891 164.82 26.8091 164.673 27.1958 164.38C27.5824 164.073 27.7758 163.667 27.7758 163.16C27.7758 162.773 27.6824 162.447 27.4958 162.18C27.3091 161.9 27.0758 161.667 26.7958 161.48C26.5158 161.28 26.2158 161.12 25.8958 161C25.5891 160.88 25.3158 160.78 25.0758 160.7C24.6491 160.567 24.2158 160.407 23.7758 160.22C23.3358 160.033 22.9291 159.793 22.5558 159.5C22.1824 159.193 21.8758 158.813 21.6358 158.36C21.4091 157.907 21.2958 157.34 21.2958 156.66C21.2958 156.02 21.4024 155.48 21.6158 155.04C21.8424 154.6 22.1424 154.247 22.5158 153.98C22.9024 153.7 23.3491 153.5 23.8558 153.38C24.3758 153.26 24.9358 153.2 25.5358 153.2C26.2691 153.2 26.9758 153.273 27.6558 153.42C28.3491 153.567 28.9291 153.747 29.3958 153.96L28.8558 156.08C28.6158 155.92 28.3558 155.78 28.0758 155.66C27.7958 155.54 27.5024 155.44 27.1958 155.36C26.9024 155.28 26.6024 155.22 26.2958 155.18C26.0024 155.127 25.7224 155.1 25.4558 155.1C24.8558 155.1 24.3824 155.213 24.0358 155.44C23.6891 155.667 23.5158 156.013 23.5158 156.48ZM45.6756 155.3H41.8556V166.5H39.5556V155.3H35.7356V153.3H45.6756V155.3ZM62.3198 166.5H59.8198L58.3198 162.66H53.3398L51.9798 166.5H49.5798L54.6998 153.3H56.6798L62.3198 166.5ZM53.9798 160.86H57.5998L55.6998 156L53.9798 160.86ZM65.5944 153.3H68.0944L72.2944 163.7L76.0944 153.3H78.4944L73.2144 166.5H71.3944L65.5944 153.3ZM92.2701 156.64C92.2701 157.173 92.1568 157.66 91.9301 158.1C91.7168 158.527 91.3768 158.893 90.9101 159.2C91.7101 159.467 92.3368 159.887 92.7901 160.46C93.2435 161.033 93.4701 161.76 93.4701 162.64C93.4701 163.2 93.3701 163.727 93.1701 164.22C92.9701 164.713 92.6635 165.147 92.2501 165.52C91.8368 165.893 91.3235 166.193 90.7101 166.42C90.0968 166.633 89.3768 166.74 88.5501 166.74C87.8168 166.74 87.1035 166.713 86.4101 166.66C85.7168 166.62 85.1368 166.567 84.6701 166.5V153.3C84.8168 153.287 85.0235 153.28 85.2901 153.28C85.5568 153.267 85.8435 153.253 86.1501 153.24C86.4568 153.227 86.7635 153.22 87.0701 153.22C87.3768 153.207 87.6501 153.2 87.8901 153.2C89.3035 153.2 90.3835 153.493 91.1301 154.08C91.8901 154.653 92.2701 155.507 92.2701 156.64ZM88.4501 160.28C88.1968 160.28 87.9435 160.287 87.6901 160.3C87.4368 160.3 87.1968 160.307 86.9701 160.32V164.78C87.2101 164.807 87.4568 164.82 87.7101 164.82C87.9635 164.82 88.2235 164.82 88.4901 164.82C89.3035 164.82 89.9368 164.62 90.3901 164.22C90.8435 163.82 91.0701 163.24 91.0701 162.48C91.0701 161.8 90.8635 161.267 90.4501 160.88C90.0368 160.48 89.3701 160.28 88.4501 160.28ZM88.2701 155.08C88.0035 155.08 87.7635 155.093 87.5501 155.12C87.3501 155.133 87.1568 155.153 86.9701 155.18V158.6C87.1301 158.613 87.2901 158.62 87.4501 158.62C87.6235 158.62 87.7968 158.62 87.9701 158.62C88.5568 158.62 89.0168 158.427 89.3501 158.04C89.6835 157.64 89.8501 157.12 89.8501 156.48C89.8501 156.08 89.7101 155.747 89.4301 155.48C89.1635 155.213 88.7768 155.08 88.2701 155.08ZM98.1248 153.3H100.705L104.085 159.28L107.325 153.3H109.865L105.165 161.08V166.5H102.865V161.16L98.1248 153.3ZM131.533 163.38L135.913 153.3H138.533V166.5H136.253V157.8L132.453 166.5H130.613L126.713 157.8V166.5H124.413V153.3H127.033L131.533 163.38ZM157.47 166.5H154.97L153.47 162.66H148.49L147.13 166.5H144.73L149.85 153.3H151.83L157.47 166.5ZM149.13 160.86H152.75L150.85 156L149.13 160.86ZM165.708 164.48C165.708 165.187 165.628 165.853 165.468 166.48C165.322 167.093 165.088 167.633 164.768 168.1C164.448 168.567 164.042 168.933 163.548 169.2C163.068 169.48 162.495 169.62 161.828 169.62L161.388 167.88C161.855 167.88 162.222 167.773 162.488 167.56C162.768 167.347 162.975 167.073 163.108 166.74C163.242 166.42 163.322 166.06 163.348 165.66C163.388 165.247 163.408 164.847 163.408 164.46V153.3H165.708V164.48ZM172.969 165.32C172.969 165.133 173.003 164.953 173.069 164.78C173.149 164.607 173.256 164.453 173.389 164.32C173.523 164.173 173.669 164.06 173.829 163.98C174.003 163.9 174.189 163.86 174.389 163.86C174.576 163.86 174.756 163.9 174.929 163.98C175.103 164.06 175.256 164.173 175.389 164.32C175.536 164.453 175.649 164.607 175.729 164.78C175.809 164.953 175.849 165.133 175.849 165.32C175.849 165.52 175.809 165.707 175.729 165.88C175.649 166.04 175.536 166.187 175.389 166.32C175.256 166.453 175.103 166.553 174.929 166.62C174.756 166.7 174.576 166.74 174.389 166.74C174.003 166.74 173.669 166.6 173.389 166.32C173.109 166.04 172.969 165.707 172.969 165.32ZM199.529 163.38L203.909 153.3H206.529V166.5H204.249V157.8L200.449 166.5H198.609L194.709 157.8V166.5H192.409V153.3H195.029L199.529 163.38ZM212.446 153.3H215.026L218.406 159.28L221.646 153.3H224.186L219.486 161.08V166.5H217.186V161.16L212.446 153.3ZM246.334 156.64C246.334 157.173 246.221 157.66 245.994 158.1C245.781 158.527 245.441 158.893 244.974 159.2C245.774 159.467 246.401 159.887 246.854 160.46C247.308 161.033 247.534 161.76 247.534 162.64C247.534 163.2 247.434 163.727 247.234 164.22C247.034 164.713 246.728 165.147 246.314 165.52C245.901 165.893 245.388 166.193 244.774 166.42C244.161 166.633 243.441 166.74 242.614 166.74C241.881 166.74 241.168 166.713 240.474 166.66C239.781 166.62 239.201 166.567 238.734 166.5V153.3C238.881 153.287 239.088 153.28 239.354 153.28C239.621 153.267 239.908 153.253 240.214 153.24C240.521 153.227 240.828 153.22 241.134 153.22C241.441 153.207 241.714 153.2 241.954 153.2C243.368 153.2 244.448 153.493 245.194 154.08C245.954 154.653 246.334 155.507 246.334 156.64ZM242.514 160.28C242.261 160.28 242.008 160.287 241.754 160.3C241.501 160.3 241.261 160.307 241.034 160.32V164.78C241.274 164.807 241.521 164.82 241.774 164.82C242.028 164.82 242.288 164.82 242.554 164.82C243.368 164.82 244.001 164.62 244.454 164.22C244.908 163.82 245.134 163.24 245.134 162.48C245.134 161.8 244.928 161.267 244.514 160.88C244.101 160.48 243.434 160.28 242.514 160.28ZM242.334 155.08C242.068 155.08 241.828 155.093 241.614 155.12C241.414 155.133 241.221 155.153 241.034 155.18V158.6C241.194 158.613 241.354 158.62 241.514 158.62C241.688 158.62 241.861 158.62 242.034 158.62C242.621 158.62 243.081 158.427 243.414 158.04C243.748 157.64 243.914 157.12 243.914 156.48C243.914 156.08 243.774 155.747 243.494 155.48C243.228 155.213 242.841 155.08 242.334 155.08ZM256.7 161.38C256.7 162.593 256.98 163.467 257.54 164C258.1 164.52 258.88 164.78 259.88 164.78C260.88 164.78 261.66 164.52 262.22 164C262.794 163.467 263.08 162.593 263.08 161.38V153.3H265.28V161.86C265.28 162.513 265.174 163.133 264.96 163.72C264.747 164.307 264.414 164.827 263.96 165.28C263.52 165.72 262.947 166.073 262.24 166.34C261.547 166.593 260.72 166.72 259.76 166.72C258.8 166.72 257.98 166.593 257.3 166.34C256.62 166.073 256.06 165.72 255.62 165.28C255.194 164.827 254.88 164.307 254.68 163.72C254.494 163.133 254.4 162.513 254.4 161.86V153.3H256.7V161.38ZM273.042 153.3C273.215 153.287 273.489 153.273 273.862 153.26C274.235 153.247 274.629 153.24 275.042 153.24C275.455 153.227 275.849 153.22 276.222 153.22C276.609 153.207 276.909 153.2 277.122 153.2C278.415 153.2 279.475 153.333 280.302 153.6C281.142 153.867 281.835 154.233 282.382 154.7C283.089 155.313 283.602 156.093 283.922 157.04C284.242 157.987 284.402 159.033 284.402 160.18C284.402 161.047 284.289 161.88 284.062 162.68C283.849 163.467 283.455 164.16 282.882 164.76C282.322 165.36 281.542 165.84 280.542 166.2C279.555 166.547 278.289 166.72 276.742 166.72C276.182 166.72 275.582 166.7 274.942 166.66C274.302 166.62 273.669 166.567 273.042 166.5V153.3ZM277.302 164.82C278.915 164.82 280.089 164.433 280.822 163.66C281.569 162.887 281.942 161.627 281.942 159.88C281.942 159.093 281.862 158.407 281.702 157.82C281.555 157.22 281.295 156.72 280.922 156.32C280.549 155.92 280.049 155.62 279.422 155.42C278.795 155.22 278.015 155.12 277.082 155.12C276.895 155.12 276.642 155.12 276.322 155.12C276.015 155.12 275.689 155.127 275.342 155.14V164.74C275.715 164.767 276.075 164.787 276.422 164.8C276.769 164.813 277.062 164.82 277.302 164.82ZM293.743 161.38C293.743 162.593 294.023 163.467 294.583 164C295.143 164.52 295.923 164.78 296.923 164.78C297.923 164.78 298.703 164.52 299.263 164C299.836 163.467 300.123 162.593 300.123 161.38V153.3H302.323V161.86C302.323 162.513 302.216 163.133 302.003 163.72C301.789 164.307 301.456 164.827 301.003 165.28C300.563 165.72 299.989 166.073 299.283 166.34C298.589 166.593 297.763 166.72 296.803 166.72C295.843 166.72 295.023 166.593 294.343 166.34C293.663 166.073 293.103 165.72 292.663 165.28C292.236 164.827 291.923 164.307 291.723 163.72C291.536 163.133 291.443 162.513 291.443 161.86V153.3H293.743V161.38ZM312.384 164.48C312.384 165.187 312.304 165.853 312.144 166.48C311.998 167.093 311.764 167.633 311.444 168.1C311.124 168.567 310.718 168.933 310.224 169.2C309.744 169.48 309.171 169.62 308.504 169.62L308.064 167.88C308.531 167.88 308.898 167.773 309.164 167.56C309.444 167.347 309.651 167.073 309.784 166.74C309.918 166.42 309.998 166.06 310.024 165.66C310.064 165.247 310.084 164.847 310.084 164.46V153.3H312.384V164.48ZM326.585 160.5H322.585V164.5H328.325V166.5H320.285V153.3H327.925V155.3H322.585V158.5H326.585V160.5ZM342.391 163.38L346.771 153.3H349.391V166.5H347.111V157.8L343.311 166.5H341.471L337.571 157.8V166.5H335.271V153.3H337.891L342.391 163.38ZM363.608 160.5H359.608V164.5H365.348V166.5H357.308V153.3H364.948V155.3H359.608V158.5H363.608V160.5ZM372.354 162.9L371.874 152.86H374.614L374.094 162.9H372.354ZM371.774 165.32C371.774 164.947 371.914 164.627 372.194 164.36C372.474 164.08 372.807 163.94 373.194 163.94C373.58 163.94 373.92 164.08 374.214 164.36C374.507 164.627 374.654 164.953 374.654 165.34C374.654 165.727 374.5 166.06 374.194 166.34C373.9 166.607 373.56 166.74 373.174 166.74C372.787 166.74 372.454 166.6 372.174 166.32C371.907 166.04 371.774 165.707 371.774 165.32Z" fill="#DA0CBE"/>
</svg>
